<?xml version="1.0" encoding="utf-8"?>
<!-- Generator: Adobe Illustrator 16.0.0, SVG Export Plug-In . SVG Version: 6.00 Build 0)  -->
<!DOCTYPE svg PUBLIC "-//W3C//DTD SVG 1.1//EN" "http://www.w3.org/Graphics/SVG/1.1/DTD/svg11.dtd">
<svg version="1.1" id="Calque_1" xmlns="http://www.w3.org/2000/svg" xmlns:xlink="http://www.w3.org/1999/xlink" x="0px" y="0px"
	 width="300px" height="81px" viewBox="0 0 300 81" enable-background="new 0 0 300 81" xml:space="preserve">
<g id="Calque_2_2_" display="none">
	<rect x="-64.5" y="-11" display="inline" fill="#3F36FF" stroke="#000000" stroke-miterlimit="10" width="467" height="130"/>
</g>
<g id="Calque_2_1_">
	<rect display="none" stroke="#FFFFFF" stroke-width="0.8014" stroke-miterlimit="10" width="300" height="81"/>
</g>
<g id="NormandieHaut" display="none">
	<rect x="3.343" y="3.109" display="inline" fill="none" width="250.757" height="16.317"/>
	
		<text transform="matrix(1 0 0 1 3.3433 19.3853)" display="inline" fill="#FFFFFF" font-family="'AlphaLigue'" font-size="22.1745">NORManDie</text>
	<g display="inline">
		<path fill="#E40613" d="M215.988,52.313h24.256c0,0-8.133,9.488-19.383,17.664C224.375,54.695,215.988,52.313,215.988,52.313z"/>
		<path fill="#E40613" d="M242.434,41.771l23.116-7.042c0,0-3.663,10.144-12.179,23.226C254.473,42.2,242.434,41.771,242.434,41.771
			z"/>
		<path fill="#E40613" d="M263.566,24.434l19.352-13.192c0,0-0.939,11.428-3.557,24.621
			C274.408,25.731,263.566,24.434,263.566,24.434z"/>
	</g>
	<g display="inline">
		<path fill="#FFFFFF" d="M6.108,28.452h1.52v19.37h-1.52V28.452z"/>
		<path fill="#FFFFFF" d="M18.531,45.702h-0.05c-0.673,1.577-2.386,2.431-3.906,2.431c-3.499,0-4.052-2.533-4.052-3.722
			c0-4.416,4.39-4.621,7.575-4.621h0.289v-0.671c0-2.247-0.749-3.383-2.798-3.383c-1.279,0-2.485,0.311-3.619,1.085v-1.577
			c0.94-0.49,2.533-0.904,3.619-0.904c3.039,0,4.317,1.474,4.317,4.906v5.813c0,1.058,0,1.857,0.122,2.764h-1.496v-2.119
			L18.531,45.702L18.531,45.702z M18.387,41.184h-0.435c-2.629,0-5.765,0.285-5.765,3.178c0,1.729,1.156,2.375,2.556,2.375
			c3.572,0,3.643-3.33,3.643-4.75L18.387,41.184L18.387,41.184z"/>
		<path fill="#FFFFFF" d="M27.499,28.452h4.342v19.37h-4.342V28.452z"/>
		<path fill="#FFFFFF" d="M35.554,34.366h4.344v13.456h-4.344V34.366z M39.898,32.172h-4.344v-3.409h4.344V32.172z"/>
		<path fill="#FFFFFF" d="M56.422,46.245c0,5.526-2.507,7.31-7.574,7.31c-2.075,0-3.787-0.469-4.801-0.854l0.217-3.667
			c1.327,0.696,2.438,1.11,4.245,1.11c2.509,0,3.86-1.269,3.86-3.899v-0.724h-0.048c-1.036,1.576-2.484,2.301-4.223,2.301
			c-3.45,0-5.595-2.791-5.595-6.768c0-4.005,1.76-7,5.669-7c1.857,0,3.353,1.084,4.27,2.737h0.049v-2.429h3.93L56.422,46.245
			L56.422,46.245z M49.452,44.255c1.543,0,2.774-1.392,2.774-3.459c0-1.496-0.819-3.176-2.774-3.176
			c-1.617,0-2.462,1.524-2.462,3.357C46.99,43.068,48.15,44.255,49.452,44.255z"/>
		<path fill="#FFFFFF" d="M72.611,47.822h-3.957v-2.48h-0.048c-0.868,1.938-2.606,2.791-4.584,2.791c-3.425,0-4.8-2.584-4.8-5.374
			v-8.393h4.342v6.508c0,2.53,0.82,3.381,2.001,3.381c1.787,0,2.702-1.313,2.702-4.208v-5.682h4.344V47.822z"/>
		<path fill="#FFFFFF" d="M79.102,42.447c0.242,1.861,1.569,2.584,3.69,2.584c1.182,0,2.533-0.284,3.835-1.033v3.281
			c-1.397,0.594-2.989,0.854-4.606,0.854c-4.149,0-7.309-2.609-7.309-7.054c0-4.439,2.822-7.022,6.73-7.022
			c4.656,0,6.343,3.538,6.343,7.541v0.853h-8.683V42.447z M83.877,39.815c0-1.548-0.674-2.814-2.412-2.814
			c-1.568,0-2.315,1.266-2.412,2.814H83.877z"/>
		<path fill="#FFFFFF" d="M104.374,47.822h-1.522V45.73h-0.047c-0.821,1.678-2.074,2.4-3.836,2.4c-3.376,0-5.066-2.997-5.066-6.896
			c0-4.002,1.448-6.896,5.066-6.896c2.413,0,3.619,1.886,3.836,2.531h0.047v-8.42h1.522V47.822z M99.21,46.734
			c2.702,0,3.642-3.098,3.642-5.498c0-2.402-0.939-5.5-3.642-5.5c-2.896,0-3.642,2.943-3.642,5.5
			C95.568,43.793,96.314,46.734,99.21,46.734z"/>
		<path fill="#FFFFFF" d="M116.288,47.408c-1.062,0.465-2.436,0.725-3.571,0.725c-4.077,0-5.594-2.945-5.594-6.896
			c0-4.028,2.073-6.896,5.186-6.896c3.474,0,4.896,2.998,4.896,6.533v0.827h-8.418c0,2.787,1.399,5.033,4.055,5.033
			c1.107,0,2.723-0.489,3.447-0.979L116.288,47.408L116.288,47.408z M115.541,40.307c0-2.301-0.868-4.571-3.137-4.571
			c-2.243,0-3.618,2.401-3.618,4.571H115.541z"/>
		<path fill="#FFFFFF" d="M6.108,54.279h1.52v19.367h-1.52V54.279z"/>
		<path fill="#FFFFFF" d="M12.163,55.623h1.52v5.626h-1.52V55.623z"/>
		<path fill="#FFFFFF" d="M21.398,68.271c0.242,1.862,1.566,2.588,3.691,2.588c1.182,0,2.534-0.285,3.835-1.034v3.278
			c-1.399,0.592-2.991,0.852-4.606,0.852c-4.15,0-7.31-2.609-7.31-7.049c0-4.441,2.823-7.023,6.731-7.023
			c4.656,0,6.343,3.537,6.343,7.54v0.849H21.398L21.398,68.271z M26.174,65.641c0-1.55-0.676-2.812-2.411-2.812
			c-1.569,0-2.316,1.262-2.413,2.812H26.174z"/>
		<path fill="#FFFFFF" d="M32.347,60.193h3.958v2.479h0.047c0.868-1.936,2.606-2.789,4.584-2.789c3.423,0,4.8,2.582,4.8,5.371v8.393
			h-4.342v-6.508c0-2.531-0.821-3.382-2.002-3.382c-1.785,0-2.701,1.319-2.701,4.208v5.682h-4.344V60.193z"/>
		<path fill="#FFFFFF" d="M48.198,69.928c1.013,0.463,2.509,0.932,4.079,0.932c0.891,0,1.759-0.156,1.759-1.086
			c0-2.271-6.177-0.67-6.177-5.523c0-3.102,2.848-4.365,5.357-4.365c1.495,0,3.014,0.184,4.414,0.774l-0.338,3.229
			c-0.917-0.598-2.291-0.902-3.377-0.902c-0.94,0-2.003,0.18-2.003,0.928c0,2.093,6.466,0.439,6.466,5.553
			c0,3.59-3.015,4.492-5.862,4.492c-1.954,0-3.279-0.206-4.56-0.646L48.198,69.928z"/>
		<path fill="#FFFFFF" d="M64.291,68.271c0.242,1.862,1.567,2.588,3.689,2.588c1.181,0,2.535-0.285,3.835-1.034v3.278
			c-1.398,0.592-2.991,0.852-4.607,0.852c-4.149,0-7.309-2.609-7.309-7.049c0-4.441,2.821-7.023,6.73-7.023
			c4.655,0,6.344,3.537,6.344,7.54v0.849H64.291L64.291,68.271z M69.067,65.641c0-1.55-0.674-2.812-2.413-2.812
			c-1.568,0-2.316,1.262-2.413,2.812H69.067z"/>
		<path fill="#FFFFFF" d="M75.747,60.193h4.342v13.453h-4.342V60.193z M80.088,57.996h-4.342v-3.407h4.342V57.996z"/>
		<path fill="#FFFFFF" d="M96.61,72.07c0,5.525-2.505,7.309-7.572,7.309c-2.075,0-3.788-0.466-4.799-0.854l0.215-3.664
			c1.326,0.695,2.436,1.104,4.248,1.104c2.507,0,3.857-1.265,3.857-3.896v-0.725h-0.047c-1.038,1.576-2.487,2.301-4.223,2.301
			c-3.448,0-5.596-2.787-5.596-6.769c0-4.003,1.761-6.997,5.668-6.997c1.859,0,3.354,1.085,4.271,2.736h0.048v-2.426h3.929
			L96.61,72.07L96.61,72.07z M89.642,70.083c1.545,0,2.774-1.396,2.774-3.458c0-1.501-0.82-3.18-2.774-3.18
			c-1.617,0-2.46,1.523-2.46,3.357C87.181,68.895,88.339,70.083,89.642,70.083z"/>
		<path fill="#FFFFFF" d="M99.412,60.193h3.957v2.479h0.047c0.87-1.936,2.606-2.789,4.584-2.789c3.426,0,4.798,2.582,4.798,5.371
			v8.393h-4.341v-6.508c0-2.531-0.819-3.382-2.002-3.382c-1.785,0-2.702,1.319-2.702,4.208v5.682h-4.342L99.412,60.193
			L99.412,60.193z"/>
		<path fill="#FFFFFF" d="M119.293,68.271c0.241,1.862,1.564,2.588,3.689,2.588c1.182,0,2.533-0.285,3.832-1.034v3.278
			c-1.396,0.592-2.988,0.852-4.604,0.852c-4.151,0-7.31-2.609-7.31-7.049c0-4.441,2.823-7.023,6.732-7.023
			c4.655,0,6.346,3.537,6.346,7.54v0.849H119.293L119.293,68.271z M124.068,65.641c0-1.55-0.675-2.812-2.413-2.812
			c-1.568,0-2.315,1.262-2.411,2.812H124.068z"/>
		<path fill="#FFFFFF" d="M130.241,60.193h3.955v2.479h0.05c0.869-1.936,2.604-2.789,4.583-2.789c1.783,0,3.257,0.828,3.932,2.582
			c1.012-1.808,2.679-2.582,4.463-2.582c3.62,0,4.44,2.193,4.44,5.836v7.928h-4.345v-7.229c0-1.521-0.505-2.658-1.734-2.658
			c-1.547,0-2.464,1.319-2.464,4.208v5.684h-4.339v-7.231c0-1.522-0.508-2.657-1.739-2.657c-1.543,0-2.46,1.318-2.46,4.207v5.682
			h-4.342V60.193L130.241,60.193z"/>
		<path fill="#FFFFFF" d="M158.154,68.271c0.242,1.862,1.566,2.588,3.688,2.588c1.186,0,2.533-0.285,3.84-1.034v3.278
			c-1.398,0.592-2.992,0.852-4.608,0.852c-4.148,0-7.31-2.609-7.31-7.049c0-4.441,2.818-7.023,6.729-7.023
			c4.656,0,6.347,3.537,6.347,7.54v0.849H158.154L158.154,68.271z M162.932,65.641c0-1.55-0.678-2.812-2.412-2.812
			c-1.566,0-2.316,1.262-2.412,2.812H162.932z"/>
		<path fill="#FFFFFF" d="M169.104,60.193h3.957v2.479h0.047c0.869-1.936,2.607-2.789,4.582-2.789c3.431,0,4.806,2.582,4.806,5.371
			v8.393h-4.347v-6.508c0-2.531-0.816-3.382-2-3.382c-1.785,0-2.7,1.319-2.7,4.208v5.682h-4.345V60.193z"/>
		<path fill="#FFFFFF" d="M184.087,60.193h2.558v-3.021l4.27-1.422v4.443h3.04v3.252h-3.04v4.957c0,1.629,0.359,2.457,1.732,2.457
			c0.438,0,0.896-0.105,1.332-0.186l0.145,3.021c-0.816,0.104-1.643,0.26-2.729,0.26c-3.883,0-4.819-1.832-4.819-5.036v-5.474
			h-2.486L184.087,60.193L184.087,60.193z"/>
	</g>
</g>
<g id="Calque_5">
	<rect x="3.481" y="5" fill="none" width="232.166" height="15.108"/>
	<g enable-background="new    ">
		<path fill="#0058A2" d="M12.182,18.022l-3.413-6.2c-0.197-0.357-0.268-0.501-0.518-1.108c-0.072-0.089-0.179-0.036-0.179,0.054
			c0,0.357,0.036,0.982,0.036,1.197v5.985c0,0.09-0.089,0.161-0.161,0.161H5.375c-0.107,0-0.161-0.089-0.161-0.161V5.157
			c0-0.09,0.089-0.161,0.161-0.161h2.68c0.054,0,0.107,0.036,0.143,0.09l3.288,5.985c0.089,0.161,0.179,0.34,0.268,0.536
			c0.071,0.071,0.179,0.054,0.179-0.054c0,0-0.054-1.144-0.054-1.626V5.157c0-0.054,0.089-0.144,0.161-0.161h2.573
			c0.089,0,0.161,0.09,0.161,0.161V17.95c-0.018,0.09-0.071,0.144-0.161,0.161h-2.305C12.254,18.111,12.2,18.075,12.182,18.022z"/>
		<path fill="#0058A2" d="M22.381,17.2c-3.02,0-5.468-2.448-5.468-5.485c0-3.002,2.448-5.45,5.468-5.45
			c3.02,0,5.467,2.448,5.467,5.45C27.848,14.751,25.4,17.2,22.381,17.2z"/>
		<path fill="#0058A2" d="M35.992,18.022l-2.358-5.093c-0.018-0.018-0.054-0.054-0.089-0.054h-0.536
			c-0.054,0-0.089,0.054-0.089,0.107v4.985c0,0.035-0.054,0.125-0.161,0.143h-2.77c-0.089,0-0.143-0.107-0.143-0.143V5.157
			c0-0.09,0.107-0.144,0.143-0.144h4.146c1.09,0,2.251,0.072,3.198,0.59c1.09,0.572,1.662,1.716,1.662,3.271
			c0,1.196-0.375,2.787-2.287,3.466c-0.018,0-0.072,0.071-0.054,0.125l2.662,5.432c0.054,0.072,0,0.215-0.125,0.215h-3.055
			C36.063,18.111,36.01,18.075,35.992,18.022z M32.919,10.446c0,0.018,0.018,0.089,0.089,0.089c1.375,0,1.59,0,1.93-0.125
			c0.84-0.304,0.84-0.894,0.857-1.572c-0.018-0.822-0.196-1.161-0.714-1.376c-0.375-0.143-0.519-0.143-1.983-0.161
			c-0.107,0-0.179,0.054-0.179,0.09V10.446z"/>
		<path fill="#0058A2" d="M51.623,17.95v-6.879c0-0.375,0-0.894,0.036-1.59c0-0.09-0.143-0.144-0.197-0.019l-2.144,8.523
			c-0.018,0.071-0.072,0.125-0.143,0.125h-1.93c-0.071,0-0.143-0.054-0.161-0.125l-2.251-8.72c-0.018-0.089-0.179-0.107-0.179,0.036
			c0.018,0.75,0.054,1.482,0.054,1.769v6.879c0,0.09-0.072,0.161-0.161,0.161h-2.412c-0.107-0.018-0.161-0.107-0.161-0.161V5.157
			c0-0.071,0.071-0.161,0.161-0.161h3.752c0.071,0,0.143,0.054,0.161,0.125c0,0,1.394,4.949,1.501,5.325
			c0.036,0.125,0.447,1.661,0.554,2.036c0.018,0.107,0.143,0.072,0.179,0c0.125-0.625,0.286-1.25,0.519-2.09l1.5-5.271
			c0.018-0.071,0.072-0.125,0.143-0.125h3.788c0.089,0,0.161,0.09,0.161,0.161V17.95c-0.018,0.072-0.071,0.161-0.161,0.161h-2.466
			C51.659,18.093,51.623,18.003,51.623,17.95z"/>
		<path fill="#0058A2" d="M56.764,17.521c0-0.179,3.377-12.043,3.377-12.043c0-0.035,0.089-0.482,0.589-0.482h2.698
			c0.304,0,0.536,0.232,0.59,0.447c0,0,3.448,11.811,3.448,12.043c0.018,0.536-0.518,0.625-0.518,0.625h-1.805
			c-0.572-0.018-0.661-0.554-0.661-0.554L64,15.627c-0.018-0.036-0.054-0.071-0.089-0.071h-3.538c-0.053,0-0.089,0.035-0.089,0.071
			l-0.465,1.822c-0.143,0.554-0.536,0.661-0.625,0.661h-1.858C57.21,18.093,56.782,18.003,56.764,17.521z M60.892,12.964
			c-0.018,0.019,0,0.054,0.018,0.072c0.018,0.018,0.036,0.035,0.072,0.035h2.251c0.018,0,0.053-0.018,0.071-0.035
			c0.018-0.019,0.018-0.054,0.018-0.072l-1.125-4.646c-0.018-0.035-0.054-0.071-0.107-0.071c-0.036,0-0.072,0.036-0.089,0.071
			L60.892,12.964z"/>
		<path fill="#0058A2" d="M76.701,18.022l-3.413-6.2c-0.197-0.357-0.268-0.501-0.518-1.108c-0.072-0.089-0.179-0.036-0.179,0.054
			c0,0.357,0.036,0.982,0.036,1.197v5.985c0,0.09-0.089,0.161-0.161,0.161h-2.573c-0.107,0-0.161-0.089-0.161-0.161V5.157
			c0-0.09,0.089-0.161,0.161-0.161h2.68c0.054,0,0.107,0.036,0.143,0.09l3.288,5.985c0.089,0.161,0.179,0.34,0.268,0.536
			c0.071,0.071,0.179,0.054,0.179-0.054c0,0-0.054-1.144-0.054-1.626V5.157c0-0.054,0.089-0.144,0.161-0.161h2.573
			c0.089,0,0.161,0.09,0.161,0.161V17.95c-0.018,0.09-0.071,0.144-0.161,0.161h-2.305C76.773,18.111,76.719,18.075,76.701,18.022z"
			/>
		<path fill="#0058A2" d="M82.272,17.342V5.835c0-0.429,0.321-0.786,0.768-0.822l2.573-0.018c3.163,0,4.288,0.697,4.985,1.733
			c0.554,0.804,0.804,1.68,0.804,4.663l-0.018,2.181c0,1.93-0.625,3.216-1.841,3.841c-0.929,0.465-1.715,0.572-2.805,0.661
			c-0.304,0.036-3.734,0.036-3.734,0.036C82.629,18.057,82.308,17.736,82.272,17.342z M85.524,7.586
			c-0.036,0-0.089,0.036-0.089,0.09v7.754c0,0.036,0.054,0.09,0.089,0.09h0.625c1.072-0.054,2.001-0.107,2.072-2.52
			c0-0.214,0.036-1.357,0.036-1.572c0-1.59-0.072-2.608-0.447-3.127C87.4,7.694,86.936,7.64,86.292,7.586
			C86.042,7.586,85.774,7.586,85.524,7.586z"/>
		<path fill="#0058A2" d="M94.847,18.111c-0.089,0-0.143-0.089-0.143-0.161V5.157c0-0.107,0.089-0.161,0.143-0.161h2.823
			c0.107,0,0.161,0.09,0.161,0.161V17.95c0,0.107-0.072,0.161-0.161,0.161H94.847z"/>
		<path fill="#0058A2" d="M102.099,18.111c-0.411,0-0.822-0.321-0.822-0.715l-0.018-11.578c0.018-0.447,0.393-0.805,0.84-0.805
			c0.018,0,7.916,0,7.916,0c0.089,0,0.161,0.072,0.161,0.161v2.323c0,0.089-0.071,0.16-0.161,0.16h-5.557
			c-0.054,0-0.089,0.036-0.089,0.09v2.233c0,0.054,0.036,0.089,0.089,0.089h3.752c0.089,0,0.143,0.072,0.143,0.144v2.341
			c0,0.089-0.072,0.143-0.143,0.16h-3.717c-0.053,0-0.089,0.036-0.089,0.09v2.52c0,0.054,0.036,0.089,0.089,0.089h5.932
			c0.089,0.018,0.143,0.09,0.143,0.161v2.395c0,0.089-0.089,0.143-0.143,0.143H102.099z"/>
	</g>
</g>
<rect x="4.481" y="56.42" fill="none" width="250.755" height="16.316"/>
<text transform="matrix(1 0 0 1 4.4819 72.6953)" display="none" fill="#E40613" enable-background="new    " font-family="'AlphaLigue'" font-size="22.1745">NORManDie</text>
<g>
	<path fill="#E40613" d="M215.988,52.313h24.256c0,0-8.133,9.488-19.383,17.664C224.375,54.695,215.988,52.313,215.988,52.313z"/>
	<path fill="#E40613" d="M242.434,41.771l23.116-7.042c0,0-3.663,10.144-12.179,23.226C254.473,42.2,242.434,41.771,242.434,41.771z
		"/>
	<path fill="#E40613" d="M263.566,24.434l19.352-13.192c0,0-0.939,11.428-3.557,24.621
		C274.408,25.731,263.566,24.434,263.566,24.434z"/>
</g>
<g>
	<path fill="#0058A2" d="M5.375,27.575h1.47v18.731h-1.47V27.575z"/>
	<path fill="#0058A2" d="M17.388,44.256H17.34c-0.651,1.525-2.308,2.352-3.777,2.352c-3.383,0-3.919-2.45-3.919-3.6
		c0-4.27,4.246-4.469,7.326-4.469h0.279v-0.648c0-2.173-0.724-3.272-2.706-3.272c-1.237,0-2.403,0.3-3.499,1.05v-1.526
		c0.909-0.474,2.449-0.874,3.499-0.874c2.939,0,4.175,1.425,4.175,4.745v5.62c0,1.022,0,1.798,0.118,2.673h-1.447L17.388,44.256
		L17.388,44.256z M17.249,39.885h-0.42c-2.542,0-5.575,0.277-5.575,3.074c0,1.671,1.118,2.295,2.472,2.295
		c3.454,0,3.523-3.22,3.523-4.593V39.885z"/>
	<path fill="#0058A2" d="M26.06,27.575h4.199v18.731H26.06V27.575z"/>
	<path fill="#0058A2" d="M33.85,33.293h4.201v13.014H33.85V33.293z M38.051,31.172H33.85v-3.296h4.201V31.172z"/>
	<path fill="#0058A2" d="M54.03,44.781c0,5.345-2.425,7.068-7.324,7.068c-2.006,0-3.662-0.453-4.643-0.826l0.21-3.545
		c1.283,0.672,2.357,1.072,4.105,1.072c2.426,0,3.733-1.225,3.733-3.771v-0.698h-0.046c-1.002,1.522-2.402,2.226-4.083,2.226
		c-3.336,0-5.411-2.699-5.411-6.543c0-3.872,1.702-6.768,5.482-6.768c1.795,0,3.242,1.049,4.129,2.647h0.047v-2.349h3.801V44.781z
		 M47.289,42.855c1.492,0,2.683-1.347,2.683-3.347c0-1.446-0.792-3.071-2.683-3.071c-1.563,0-2.38,1.474-2.38,3.247
		C44.909,41.71,46.031,42.855,47.289,42.855z"/>
	<path fill="#0058A2" d="M69.685,46.307h-3.826v-2.4h-0.046c-0.84,1.875-2.521,2.699-4.433,2.699c-3.312,0-4.642-2.498-4.642-5.195
		v-8.116h4.199v6.293c0,2.448,0.793,3.271,1.936,3.271c1.728,0,2.613-1.271,2.613-4.068v-5.494h4.201v13.014h-0.002V46.307z"/>
	<path fill="#0058A2" d="M75.961,41.109c0.234,1.799,1.517,2.498,3.569,2.498c1.143,0,2.449-0.275,3.708-1v3.174
		c-1.351,0.574-2.891,0.826-4.455,0.826c-4.012,0-7.068-2.524-7.068-6.821c0-4.293,2.729-6.791,6.508-6.791
		c4.502,0,6.134,3.421,6.134,7.291v0.823H75.961L75.961,41.109z M80.58,38.563c0-1.498-0.652-2.722-2.333-2.722
		c-1.516,0-2.238,1.224-2.332,2.722H80.58z"/>
	<path fill="#0058A2" d="M100.4,46.307h-1.472v-2.022h-0.045c-0.794,1.623-2.006,2.321-3.71,2.321c-3.265,0-4.899-2.896-4.899-6.667
		c0-3.871,1.4-6.668,4.899-6.668c2.333,0,3.5,1.824,3.71,2.448h0.045v-8.142h1.472V46.307z M95.407,45.255
		c2.613,0,3.521-2.997,3.521-5.317c0-2.323-0.909-5.319-3.521-5.319c-2.8,0-3.522,2.846-3.522,5.319
		C91.885,42.41,92.606,45.255,95.407,45.255z"/>
	<path fill="#0058A2" d="M111.921,45.906c-1.026,0.449-2.355,0.701-3.453,0.701c-3.942,0-5.41-2.851-5.41-6.669
		c0-3.897,2.005-6.668,5.015-6.668c3.359,0,4.734,2.899,4.734,6.318v0.8h-8.141c0,2.695,1.353,4.868,3.921,4.868
		c1.07,0,2.633-0.475,3.333-0.947L111.921,45.906L111.921,45.906z M111.199,39.039c0-2.225-0.84-4.42-3.033-4.42
		c-2.169,0-3.499,2.322-3.499,4.42H111.199z"/>
	<path fill="#0058A2" d="M5.375,52.55h1.47v18.729h-1.47V52.55z"/>
	<path fill="#0058A2" d="M11.23,53.85h1.469v5.44H11.23V53.85z"/>
	<path fill="#0058A2" d="M20.161,66.081c0.234,1.802,1.515,2.503,3.569,2.503c1.143,0,2.45-0.275,3.708-1.001v3.171
		c-1.354,0.572-2.892,0.823-4.455,0.823c-4.013,0-7.069-2.522-7.069-6.815c0-4.296,2.729-6.793,6.509-6.793
		c4.502,0,6.134,3.422,6.134,7.291v0.821H20.161z M24.779,63.537c0-1.5-0.653-2.721-2.332-2.721c-1.517,0-2.24,1.221-2.333,2.721
		H24.779z"/>
	<path fill="#0058A2" d="M30.749,58.27h3.827v2.396h0.045c0.839-1.872,2.52-2.697,4.433-2.697c3.31,0,4.642,2.497,4.642,5.193v8.115
		h-4.199v-6.293c0-2.447-0.793-3.271-1.936-3.271c-1.726,0-2.612,1.275-2.612,4.07v5.492h-4.2V58.27z"/>
	<path fill="#0058A2" d="M46.077,67.684c0.979,0.445,2.426,0.9,3.944,0.9c0.861,0,1.701-0.152,1.701-1.05
		c0-2.199-5.973-0.647-5.973-5.345c0-2.998,2.754-4.223,5.181-4.223c1.445,0,2.915,0.178,4.268,0.749l-0.327,3.122
		c-0.887-0.574-2.215-0.873-3.266-0.873c-0.91,0-1.938,0.176-1.938,0.896c0,2.023,6.252,0.426,6.252,5.369
		c0,3.474-2.916,4.346-5.668,4.346c-1.89,0-3.171-0.2-4.41-0.625L46.077,67.684z"/>
	<path fill="#0058A2" d="M61.639,66.081c0.234,1.802,1.516,2.503,3.567,2.503c1.142,0,2.452-0.275,3.709-1.001v3.171
		c-1.353,0.572-2.892,0.823-4.455,0.823c-4.013,0-7.068-2.522-7.068-6.815c0-4.296,2.728-6.793,6.508-6.793
		c4.502,0,6.135,3.422,6.135,7.291v0.821H61.639z M66.258,63.537c0-1.5-0.652-2.721-2.333-2.721c-1.516,0-2.24,1.221-2.333,2.721
		H66.258z"/>
	<path fill="#0058A2" d="M72.717,58.27h4.199v13.01h-4.199V58.27z M76.916,56.145h-4.199V52.85h4.199V56.145z"/>
	<path fill="#0058A2" d="M92.893,69.755c0,5.343-2.423,7.067-7.322,7.067c-2.006,0-3.663-0.451-4.641-0.825l0.208-3.543
		c1.283,0.672,2.356,1.067,4.107,1.067c2.425,0,3.73-1.223,3.73-3.769v-0.698H88.93c-1.004,1.523-2.405,2.225-4.083,2.225
		c-3.334,0-5.412-2.695-5.412-6.545c0-3.869,1.703-6.766,5.481-6.766c1.798,0,3.244,1.049,4.13,2.645h0.047V58.27h3.799
		L92.893,69.755L92.893,69.755z M86.154,67.832c1.494,0,2.683-1.35,2.683-3.344c0-1.452-0.793-3.074-2.683-3.074
		c-1.564,0-2.379,1.473-2.379,3.247C83.774,66.682,84.894,67.832,86.154,67.832z"/>
	<path fill="#0058A2" d="M95.602,58.27h3.827v2.396h0.045c0.841-1.872,2.52-2.697,4.433-2.697c3.313,0,4.64,2.497,4.64,5.193v8.115
		h-4.198v-6.293c0-2.447-0.792-3.271-1.936-3.271c-1.726,0-2.612,1.275-2.612,4.07v5.492h-4.199V58.27z"/>
	<path fill="#0058A2" d="M114.827,66.081c0.233,1.802,1.513,2.503,3.568,2.503c1.143,0,2.45-0.275,3.705-1.001v3.171
		c-1.349,0.572-2.89,0.823-4.452,0.823c-4.014,0-7.069-2.522-7.069-6.815c0-4.296,2.73-6.793,6.51-6.793
		c4.501,0,6.137,3.422,6.137,7.291v0.821H114.827z M119.445,63.537c0-1.5-0.653-2.721-2.333-2.721c-1.516,0-2.239,1.221-2.332,2.721
		H119.445z"/>
	<path fill="#0058A2" d="M125.415,58.27h3.825v2.396h0.048c0.841-1.872,2.518-2.697,4.433-2.697c1.724,0,3.149,0.801,3.802,2.497
		c0.979-1.749,2.591-2.497,4.316-2.497c3.5,0,4.293,2.12,4.293,5.643v7.668h-4.201v-6.993c0-1.472-0.489-2.57-1.677-2.57
		c-1.497,0-2.383,1.275-2.383,4.07v5.493h-4.196v-6.993c0-1.472-0.492-2.57-1.682-2.57c-1.493,0-2.379,1.275-2.379,4.07v5.493
		h-4.199V58.27z"/>
	<path fill="#0058A2" d="M152.406,66.081c0.234,1.802,1.517,2.503,3.568,2.503c1.145,0,2.447-0.275,3.713-1.001v3.171
		c-1.354,0.572-2.896,0.823-4.457,0.823c-4.014,0-7.068-2.522-7.068-6.815c0-4.296,2.725-6.793,6.504-6.793
		c4.505,0,6.139,3.422,6.139,7.291v0.821H152.406z M157.025,63.537c0-1.5-0.654-2.721-2.332-2.721c-1.519,0-2.241,1.221-2.332,2.721
		H157.025z"/>
	<path fill="#0058A2" d="M162.997,58.27h3.826v2.396h0.043c0.841-1.872,2.522-2.697,4.432-2.697c3.315,0,4.646,2.497,4.646,5.193
		v8.115h-4.198v-6.293c0-2.447-0.791-3.271-1.935-3.271c-1.729,0-2.615,1.275-2.615,4.07v5.492h-4.196L162.997,58.27L162.997,58.27z
		"/>
	<path fill="#0058A2" d="M177.484,58.27h2.473v-2.922l4.127-1.375v4.297h2.941v3.146h-2.941v4.793c0,1.575,0.35,2.376,1.678,2.376
		c0.424,0,0.866-0.103,1.288-0.179l0.138,2.921c-0.791,0.104-1.586,0.251-2.637,0.251c-3.755,0-4.66-1.771-4.66-4.87v-5.292h-2.404
		V58.27H177.484z"/>
</g>
<g display="none">
	<g display="inline">
		<g>
			<path fill="#E20613" d="M4.38,79.229c21.23-1.412,42.431-1.69,63.702-1.69c1.23,0,1.683-1.558,0.203-1.558
				c-21.27,0-42.471,0.279-63.702,1.69C3.369,77.752,2.891,79.326,4.38,79.229L4.38,79.229z"/>
		</g>
	</g>
	<g display="inline">
		<g>
			<path fill="#E20613" stroke="#E20613" stroke-width="0.3274" stroke-miterlimit="10" d="M101.843,55.441
				c0.11,0.396,0.088,0.662-0.064,0.801c-0.153,0.137-0.376,0.195-0.67,0.173c-0.244-0.011-0.477-0.11-0.697-0.297
				c-0.221-0.188-0.331-0.386-0.331-0.595c0-0.133,0.061-0.256,0.184-0.371c0.123-0.114,0.25-0.166,0.385-0.156
				c0.232,0.011,0.465,0.027,0.698,0.05C101.617,55.102,101.782,55.232,101.843,55.441z"/>
		</g>
	</g>
	<rect x="4.738" y="60.395" display="inline" fill="none" width="171.329" height="33.608"/>
	
		<text transform="matrix(1.34 0 0 1 4.7373 70.8359)" display="inline" fill="#E20613" font-family="'TrashHand'" font-size="18.9485">Normandie</text>
	
		<text transform="matrix(1.34 0 0 1 4.7373 70.8359)" display="inline" fill="none" stroke="#E20613" stroke-width="0.2809" stroke-miterlimit="10" font-family="'TrashHand'" font-size="18.9485">Normandie</text>
</g>
<g id="ligue" display="none">
	<g display="inline">
		<path fill="#40A878" d="M99.145,66.762v8.854c0,2.95-2.213,4.672-4.918,4.672H6.68c-2.705,0-4.918-1.968-4.918-4.672v-8.854"/>
		<path fill="#61FFB6" d="M93.98,75.616H6.68c-2.705,0-4.918-2.214-4.918-5.164V7.004c0-2.951,2.213-5.41,4.918-5.41h87.547
			c2.705,0,4.918,2.706,4.918,5.41v63.201C99.145,72.909,96.931,75.616,93.98,75.616z M90.046,25.448v-15H11.598v8.116h8.361v37.872
			h-8.361v8.115h78.448l0,0V49.548h-8.361v6.888H28.32V41.434h33.69v5.41h8.362V27.907H62.01v5.657H28.32V18.563h53.119v6.885
			H90.046z"/>
	</g>
	<g display="inline">
		<path fill="#FFFFFF" d="M142.18,62.581h-28.525V19.546h28.525v7.377h-19.427v9.345h15.738v7.378h-15.738V54.71h19.427V62.581z"/>
		<path fill="#FFFFFF" d="M204.152,62.581h-9.104V27.17h-13.031l-4.67-7.624h38.36v7.624H203.9v35.411H204.152z"/>
		<path fill="#FFFFFF" d="M250.631,60.859l15.738-41.562h11.066l16.477,43.281h-9.836l-12.297-34.182L259.482,62.58"/>
		<polygon fill="#FFFFFF" points="155.952,62.581 145.624,62.581 177.593,19.546 184.232,24.464 		"/>
		<polygon fill="#FFFFFF" points="177.593,62.581 187.922,62.581 155.952,19.546 145.624,19.546 		"/>
		<path fill="#FFFFFF" d="M237.842,19.546h-17.703v43.035h9.098V46.105h8.605l0,0c7.379,0,13.28-5.902,13.28-13.279
			C251.122,25.448,244.975,19.546,237.842,19.546z M236.613,38.482h-7.379V26.924h7.379l0,0c3.195,0,5.656,2.459,5.656,5.656
			C242.27,36.022,239.811,38.482,236.613,38.482z"/>
		<path fill="#FFFFFF" d="M233.17,42.417c-0.982,0-1.967,0-2.704-0.245l15.001,20.164h14.018l-5.899-2.949l-13.278-17.953
			C238.089,42.172,235.875,42.417,233.17,42.417z"/>
		<rect x="263.664" y="42.417" fill="#FFFFFF" width="17.461" height="7.869"/>
	</g>
	<g id="Calque_2" display="inline">
		<g>
			<path fill="#FFFFFF" d="M3.234,1.333h2.344v29.886H3.234V1.333z"/>
			<path fill="#FFFFFF" d="M22.402,27.95h-0.076c-1.042,2.431-3.686,3.748-6.03,3.748c-5.399,0-6.254-3.906-6.254-5.74
				c0-6.813,6.776-7.131,11.689-7.131h0.447v-1.035c0-3.468-1.156-5.221-4.319-5.221c-1.974,0-3.834,0.479-5.583,1.673v-2.432
				c1.451-0.756,3.907-1.395,5.583-1.395c4.691,0,6.664,2.272,6.664,7.571v8.966c0,1.632,0,2.868,0.185,4.264h-2.307L22.402,27.95
				L22.402,27.95z M22.179,20.976h-0.671c-4.057,0-8.896,0.441-8.896,4.902c0,2.67,1.785,3.666,3.945,3.666
				c5.51,0,5.621-5.14,5.621-7.33L22.179,20.976L22.179,20.976z"/>
			<path fill="#FFFFFF" d="M36.238,1.333h6.699v29.886h-6.699V1.333z"/>
			<path fill="#FFFFFF" d="M48.669,10.458h6.701v20.761h-6.701V10.458z M55.37,7.072h-6.701V1.813h6.701V7.072z"/>
			<path fill="#FFFFFF" d="M80.868,28.787c0,8.527-3.871,11.276-11.687,11.276c-3.202,0-5.843-0.719-7.408-1.315l0.334-5.656
				c2.049,1.074,3.76,1.711,6.552,1.711c3.87,0,5.955-1.953,5.955-6.016v-1.116H74.54c-1.6,2.433-3.833,3.548-6.515,3.548
				c-5.322,0-8.634-4.305-8.634-10.441c0-6.177,2.716-10.798,8.748-10.798c2.865,0,5.173,1.674,6.587,4.224h0.075v-3.746h6.067
				V28.787L80.868,28.787z M70.112,25.717c2.38,0,4.279-2.15,4.279-5.338c0-2.31-1.264-4.901-4.279-4.901
				c-2.495,0-3.798,2.351-3.798,5.18C66.313,23.885,68.102,25.717,70.112,25.717z"/>
			<path fill="#FFFFFF" d="M105.846,31.219H99.74v-3.827h-0.075c-1.34,2.988-4.02,4.305-7.072,4.305
				c-5.285,0-7.406-3.985-7.406-8.29v-12.95h6.699v10.04c0,3.906,1.265,5.219,3.089,5.219c2.755,0,4.168-2.03,4.168-6.494v-8.766
				h6.702L105.846,31.219L105.846,31.219z"/>
			<path fill="#FFFFFF" d="M115.86,22.929c0.372,2.87,2.421,3.986,5.694,3.986c1.824,0,3.908-0.439,5.918-1.596v5.062
				c-2.158,0.917-4.613,1.316-7.108,1.316c-6.402,0-11.279-4.026-11.279-10.88c0-6.852,4.355-10.837,10.385-10.837
				c7.184,0,9.788,5.459,9.788,11.635v1.313L115.86,22.929L115.86,22.929z M123.229,18.865c0-2.39-1.042-4.342-3.723-4.342
				c-2.417,0-3.57,1.952-3.719,4.342H123.229z"/>
			<path fill="#FFFFFF" d="M154.854,31.219h-2.346V27.99h-0.074c-1.265,2.59-3.201,3.707-5.917,3.707
				c-5.21,0-7.815-4.622-7.815-10.639c0-6.177,2.234-10.64,7.815-10.64c3.722,0,5.583,2.91,5.917,3.905h0.074V1.333h2.346V31.219
				L154.854,31.219z M146.887,29.543c4.169,0,5.621-4.781,5.621-8.485c0-3.707-1.449-8.487-5.621-8.487
				c-4.466,0-5.621,4.541-5.621,8.487C141.267,25.002,142.421,29.543,146.887,29.543z"/>
			<path fill="#FFFFFF" d="M173.238,30.581c-1.637,0.716-3.758,1.116-5.508,1.116c-6.291,0-8.635-4.543-8.635-10.639
				c0-6.218,3.198-10.64,8.004-10.64c5.356,0,7.555,4.624,7.555,10.08v1.277h-12.992c0,4.3,2.16,7.769,6.256,7.769
				c1.712,0,4.204-0.757,5.32-1.513V30.581L173.238,30.581z M172.086,19.624c0-3.548-1.34-7.053-4.84-7.053
				c-3.462,0-5.584,3.704-5.584,7.053H172.086z"/>
			<path fill="#FFFFFF" d="M3.234,41.184h2.344v29.883H3.234V41.184z"/>
			<path fill="#FFFFFF" d="M12.575,43.255h2.344v8.685h-2.344V43.255L12.575,43.255z"/>
			<path fill="#FFFFFF" d="M26.826,62.777c0.372,2.871,2.416,3.984,5.693,3.984c1.825,0,3.909-0.439,5.918-1.595v5.062
				c-2.158,0.916-4.616,1.313-7.108,1.313c-6.404,0-11.279-4.021-11.279-10.879c0-6.854,4.356-10.835,10.386-10.835
				c7.183,0,9.789,5.458,9.789,11.634v1.313H26.826V62.777z M34.195,58.714c0-2.389-1.043-4.34-3.721-4.34
				c-2.42,0-3.574,1.951-3.722,4.34H34.195z"/>
			<path fill="#FFFFFF" d="M43.719,50.309h6.106v3.822H49.9c1.339-2.986,4.019-4.301,7.071-4.301c5.284,0,7.408,3.984,7.408,8.286
				v12.95h-6.7V61.025c0-3.906-1.266-5.221-3.089-5.221c-2.756,0-4.168,2.03-4.168,6.492v8.77H43.72L43.719,50.309L43.719,50.309z"
				/>
			<path fill="#FFFFFF" d="M68.177,65.329c1.563,0.717,3.871,1.435,6.292,1.435c1.376,0,2.714-0.238,2.714-1.673
				c0-3.508-9.527-1.036-9.527-8.528c0-4.778,4.393-6.729,8.264-6.729c2.307,0,4.652,0.276,6.812,1.194l-0.521,4.979
				c-1.416-0.916-3.535-1.396-5.212-1.396c-1.451,0-3.089,0.277-3.089,1.437c0,3.229,9.976,0.681,9.976,8.563
				c0,5.537-4.652,6.935-9.046,6.935c-3.015,0-5.061-0.313-7.036-0.996L68.177,65.329z"/>
			<path fill="#FFFFFF" d="M93.007,62.777c0.372,2.871,2.418,3.984,5.694,3.984c1.823,0,3.91-0.439,5.917-1.595v5.062
				c-2.157,0.916-4.615,1.313-7.108,1.313c-6.403,0-11.278-4.021-11.278-10.879c0-6.854,4.354-10.835,10.386-10.835
				c7.183,0,9.789,5.458,9.789,11.634v1.313h-13.4V62.777z M100.376,58.714c0-2.389-1.042-4.34-3.722-4.34
				c-2.42,0-3.574,1.951-3.723,4.34H100.376z"/>
			<path fill="#FFFFFF" d="M110.683,50.309h6.699v20.758h-6.699V50.309z M117.382,46.92h-6.699v-5.259h6.699V46.92z"/>
			<path fill="#FFFFFF" d="M142.878,68.639c0,8.523-3.869,11.271-11.686,11.271c-3.2,0-5.844-0.717-7.405-1.314l0.334-5.656
				c2.045,1.076,3.76,1.715,6.552,1.715c3.87,0,5.955-1.952,5.955-6.016V67.52h-0.075c-1.601,2.435-3.836,3.549-6.514,3.549
				c-5.322,0-8.635-4.305-8.635-10.439c0-6.172,2.716-10.796,8.746-10.796c2.867,0,5.174,1.674,6.589,4.224h0.072v-3.742h6.067
				V68.639L142.878,68.639z M132.125,65.566c2.381,0,4.279-2.152,4.279-5.336c0-2.314-1.266-4.902-4.279-4.902
				c-2.496,0-3.798,2.35-3.798,5.18C128.327,63.734,130.114,65.566,132.125,65.566z"/>
			<path fill="#FFFFFF" d="M147.2,50.309h6.104v3.822h0.069c1.342-2.986,4.021-4.301,7.071-4.301c5.285,0,7.406,3.984,7.406,8.286
				v12.95h-6.699V61.025c0-3.906-1.264-5.221-3.09-5.221c-2.754,0-4.168,2.03-4.168,6.492v8.77H147.2V50.309L147.2,50.309z"/>
			<path fill="#FFFFFF" d="M177.873,62.777c0.372,2.871,2.418,3.984,5.695,3.984c1.822,0,3.908-0.439,5.914-1.595v5.062
				c-2.154,0.916-4.612,1.313-7.104,1.313c-6.403,0-11.28-4.021-11.28-10.879c0-6.854,4.357-10.835,10.387-10.835
				c7.188,0,9.793,5.458,9.793,11.634v1.313h-13.402L177.873,62.777L177.873,62.777z M185.242,58.714c0-2.389-1.041-4.34-3.723-4.34
				c-2.42,0-3.571,1.951-3.725,4.34H185.242z"/>
			<path fill="#FFFFFF" d="M194.768,50.309h6.104v3.822h0.077c1.341-2.986,4.019-4.301,7.072-4.301c2.752,0,5.021,1.271,6.063,3.984
				c1.563-2.789,4.139-3.984,6.889-3.984c5.584,0,6.854,3.384,6.854,9.004v12.232h-6.705V59.91c0-2.352-0.781-4.104-2.678-4.104
				c-2.385,0-3.801,2.028-3.801,6.49v8.77h-6.694V59.91c0-2.352-0.783-4.104-2.685-4.104c-2.385,0-3.793,2.028-3.793,6.49v8.77
				h-6.703V50.309L194.768,50.309z"/>
			<path fill="#FFFFFF" d="M237.838,62.777c0.375,2.871,2.419,3.984,5.693,3.984c1.826,0,3.908-0.439,5.923-1.595v5.062
				c-2.161,0.916-4.62,1.313-7.113,1.313c-6.399,0-11.274-4.021-11.274-10.879c0-6.854,4.353-10.835,10.379-10.835
				c7.188,0,9.793,5.458,9.793,11.634v1.313H237.84L237.838,62.777L237.838,62.777z M245.21,58.714c0-2.389-1.047-4.34-3.724-4.34
				c-2.42,0-3.574,1.951-3.721,4.34H245.21z"/>
			<path fill="#FFFFFF" d="M254.734,50.309h6.104v3.822h0.071c1.342-2.986,4.024-4.301,7.073-4.301c5.287,0,7.408,3.984,7.408,8.286
				v12.95h-6.703V61.025c0-3.906-1.266-5.221-3.09-5.221c-2.757,0-4.166,2.03-4.166,6.492v8.77h-6.699V50.309H254.734z"/>
			<path fill="#FFFFFF" d="M277.852,50.309h3.946v-4.662l6.584-2.188v6.854h4.691v5.021h-4.691v7.646
				c0,2.513,0.562,3.787,2.679,3.787c0.674,0,1.383-0.158,2.057-0.277l0.221,4.66c-1.263,0.16-2.529,0.398-4.207,0.398
				c-5.988,0-7.439-2.826-7.439-7.771V55.33h-3.834v-5.021H277.852z"/>
		</g>
	</g>
</g>
<g id="Calque_4_1_">
	<g id="Calque_3" display="none">
		<rect x="27.179" y="5.774" display="inline" fill="#5482BE" width="158.635" height="45.026"/>
		<rect x="27.178" y="52.73" display="inline" fill="#0058A2" width="158.632" height="22.512"/>
		<path display="inline" fill="#E40613" d="M172.141,31.114l32.11-9.779c0,0-5.09,14.091-16.916,32.261
			C188.863,31.708,172.141,31.114,172.141,31.114z"/>
		<g display="inline">
			<path fill="#FFFFFF" d="M57.705,29.363h1.407v17.934h-1.407V29.363z"/>
			<path fill="#FFFFFF" d="M69.207,45.334h-0.046c-0.625,1.459-2.211,2.248-3.618,2.248c-3.239,0-3.752-2.346-3.752-3.443
				c0-4.089,4.067-4.279,7.014-4.279h0.269v-0.62c0-2.082-0.694-3.133-2.592-3.133c-1.185,0-2.301,0.288-3.35,1.004v-1.458
				c0.871-0.455,2.346-0.838,3.35-0.838c2.813,0,3.999,1.364,3.999,4.544v5.379c0,0.98,0,1.721,0.11,2.56h-1.383L69.207,45.334
				L69.207,45.334z M69.073,41.15H68.67c-2.435,0-5.337,0.264-5.337,2.94c0,1.603,1.071,2.198,2.367,2.198
				c3.306,0,3.374-3.084,3.374-4.396L69.073,41.15L69.073,41.15z"/>
			<path fill="#FFFFFF" d="M77.509,29.363h4.02v17.934h-4.02V29.363z"/>
			<path fill="#FFFFFF" d="M84.968,34.837h4.021v12.459h-4.021V34.837z M88.989,32.807h-4.021v-3.156h4.021V32.807z"/>
			<path fill="#FFFFFF" d="M104.289,45.838c0,5.116-2.323,6.766-7.012,6.766c-1.922,0-3.506-0.433-4.445-0.791l0.2-3.394
				c1.231,0.646,2.257,1.024,3.932,1.024c2.323,0,3.573-1.17,3.573-3.605v-0.673h-0.044c-0.96,1.463-2.299,2.132-3.909,2.132
				c-3.193,0-5.181-2.585-5.181-6.268c0-3.707,1.629-6.479,5.249-6.479c1.72,0,3.104,1.005,3.953,2.535h0.045v-2.25h3.64
				L104.289,45.838L104.289,45.838z M97.834,43.995c1.429,0,2.568-1.291,2.568-3.204c0-1.387-0.758-2.94-2.568-2.94
				c-1.497,0-2.279,1.41-2.279,3.108C95.555,42.895,96.629,43.995,97.834,43.995z"/>
			<path fill="#FFFFFF" d="M119.277,47.297h-3.664V45h-0.045c-0.804,1.793-2.412,2.582-4.243,2.582
				c-3.172,0-4.444-2.391-4.444-4.975v-7.771h4.019v6.026c0,2.343,0.76,3.132,1.853,3.132c1.653,0,2.502-1.218,2.502-3.897v-5.26
				h4.021L119.277,47.297L119.277,47.297z"/>
			<path fill="#FFFFFF" d="M125.286,42.32c0.224,1.723,1.453,2.392,3.418,2.392c1.093,0,2.344-0.263,3.55-0.957v3.038
				c-1.294,0.549-2.769,0.789-4.265,0.789c-3.841,0-6.769-2.417-6.769-6.527c0-4.111,2.614-6.502,6.231-6.502
				c4.312,0,5.874,3.275,5.874,6.982v0.786H125.286z M129.708,39.884c0-1.435-0.625-2.607-2.235-2.607
				c-1.45,0-2.142,1.172-2.232,2.607H129.708z"/>
			<path fill="#FFFFFF" d="M148.685,47.297h-1.409v-1.938h-0.044c-0.759,1.554-1.919,2.224-3.551,2.224
				c-3.125,0-4.689-2.772-4.689-6.383c0-3.708,1.34-6.385,4.689-6.385c2.233,0,3.35,1.747,3.551,2.343h0.044v-7.794h1.409V47.297z
				 M143.904,46.29c2.502,0,3.372-2.87,3.372-5.091c0-2.225-0.87-5.093-3.372-5.093c-2.68,0-3.373,2.726-3.373,5.093
				S141.224,46.29,143.904,46.29z"/>
			<path fill="#FFFFFF" d="M159.716,46.912c-0.981,0.43-2.255,0.67-3.304,0.67c-3.775,0-5.184-2.727-5.184-6.383
				c0-3.731,1.922-6.385,4.803-6.385c3.215,0,4.533,2.775,4.533,6.049v0.765h-7.795c0,2.581,1.297,4.662,3.752,4.662
				c1.028,0,2.524-0.452,3.193-0.907L159.716,46.912L159.716,46.912z M159.023,40.338c0-2.128-0.803-4.232-2.904-4.232
				c-2.075,0-3.35,2.223-3.35,4.232H159.023z"/>
			<path fill="#FFFFFF" d="M57.705,53.273h1.407v17.933h-1.407V53.273z"/>
			<path fill="#FFFFFF" d="M63.311,54.52h1.406v5.211h-1.406V54.52z"/>
			<path fill="#FFFFFF" d="M71.861,66.232c0.223,1.724,1.45,2.393,3.417,2.393c1.094,0,2.346-0.266,3.551-0.956v3.034
				c-1.294,0.55-2.77,0.789-4.265,0.789c-3.842,0-6.769-2.414-6.769-6.527c0-4.109,2.614-6.501,6.231-6.501
				c4.311,0,5.874,3.272,5.874,6.979v0.789H71.861z M76.283,63.794c0-1.435-0.626-2.604-2.233-2.604
				c-1.452,0-2.145,1.172-2.234,2.604H76.283z"/>
			<path fill="#FFFFFF" d="M81.998,58.75h3.664v2.296h0.044c0.803-1.794,2.411-2.582,4.243-2.582c3.17,0,4.446,2.392,4.446,4.974
				v7.77h-4.021v-6.023c0-2.346-0.759-3.134-1.854-3.134c-1.652,0-2.5,1.222-2.5,3.896v5.262h-4.021L81.998,58.75L81.998,58.75z"/>
			<path fill="#FFFFFF" d="M96.674,67.764c0.938,0.43,2.322,0.861,3.775,0.861c0.825,0,1.629-0.146,1.629-1.004
				c0-2.107-5.717-0.622-5.717-5.118c0-2.87,2.635-4.039,4.958-4.039c1.384,0,2.791,0.166,4.088,0.716l-0.314,2.989
				c-0.849-0.55-2.121-0.838-3.127-0.838c-0.871,0-1.854,0.168-1.854,0.86c0,1.938,5.986,0.408,5.986,5.141
				c0,3.322-2.792,4.16-5.428,4.16c-1.809,0-3.037-0.189-4.221-0.596L96.674,67.764z"/>
			<path fill="#FFFFFF" d="M111.573,66.232c0.223,1.724,1.452,2.393,3.416,2.393c1.094,0,2.347-0.266,3.551-0.956v3.034
				c-1.294,0.55-2.769,0.789-4.265,0.789c-3.841,0-6.767-2.414-6.767-6.527c0-4.109,2.612-6.501,6.232-6.501
				c4.309,0,5.873,3.272,5.873,6.979v0.789H111.573z M115.996,63.794c0-1.435-0.625-2.604-2.234-2.604
				c-1.452,0-2.144,1.172-2.234,2.604H115.996z"/>
			<path fill="#FFFFFF" d="M122.179,58.75h4.02v12.456h-4.02V58.75z M126.199,56.719h-4.02v-3.156h4.02V56.719z"/>
			<path fill="#FFFFFF" d="M141.499,69.75c0,5.111-2.321,6.766-7.013,6.766c-1.921,0-3.507-0.433-4.444-0.791l0.201-3.396
				c1.227,0.646,2.255,1.028,3.932,1.028c2.321,0,3.572-1.172,3.572-3.607v-0.672h-0.044c-0.959,1.457-2.301,2.128-3.907,2.128
				c-3.194,0-5.183-2.581-5.183-6.265c0-3.705,1.631-6.479,5.25-6.479c1.72,0,3.104,1.004,3.952,2.533h0.044V58.75h3.641
				L141.499,69.75L141.499,69.75z M135.044,67.906c1.429,0,2.57-1.293,2.57-3.201c0-1.391-0.761-2.941-2.57-2.941
				c-1.496,0-2.278,1.407-2.278,3.106C132.767,66.807,133.839,67.906,135.044,67.906z"/>
			<path fill="#FFFFFF" d="M144.091,58.75h3.664v2.296h0.044c0.805-1.794,2.413-2.582,4.243-2.582c3.171,0,4.444,2.392,4.444,4.974
				v7.77h-4.021v-6.023c0-2.346-0.758-3.134-1.853-3.134c-1.655,0-2.5,1.222-2.5,3.896v5.262h-4.023L144.091,58.75L144.091,58.75z"
				/>
			<path fill="#FFFFFF" d="M162.497,66.232c0.224,1.724,1.448,2.393,3.415,2.393c1.097,0,2.348-0.266,3.55-0.956v3.034
				c-1.294,0.55-2.767,0.789-4.263,0.789c-3.844,0-6.768-2.414-6.768-6.527c0-4.109,2.612-6.501,6.231-6.501
				c4.31,0,5.875,3.272,5.875,6.979v0.789H162.497z M166.92,63.794c0-1.435-0.626-2.604-2.236-2.604
				c-1.449,0-2.142,1.172-2.231,2.604H166.92z"/>
			<path fill="#FFFFFF" d="M172.633,58.75h3.665v2.296h0.046c0.805-1.794,2.41-2.582,4.243-2.582c1.649,0,3.017,0.765,3.642,2.392
				c0.936-1.676,2.479-2.392,4.129-2.392c3.354,0,4.113,2.032,4.113,5.403v7.339h-4.025V64.51c0-1.41-0.465-2.461-1.604-2.461
				c-1.431,0-2.281,1.221-2.281,3.896v5.261h-4.016V64.51c0-1.41-0.471-2.461-1.611-2.461c-1.43,0-2.277,1.221-2.277,3.896v5.261
				h-4.021V58.75H172.633z"/>
			<path fill="#FFFFFF" d="M198.477,66.232c0.228,1.724,1.453,2.393,3.418,2.393c1.096,0,2.347-0.266,3.554-0.956v3.034
				c-1.296,0.55-2.771,0.789-4.267,0.789c-3.844,0-6.768-2.414-6.768-6.527c0-4.109,2.611-6.501,6.229-6.501
				c4.313,0,5.877,3.272,5.877,6.979v0.789H198.477z M202.902,63.794c0-1.435-0.627-2.604-2.234-2.604
				c-1.451,0-2.143,1.172-2.232,2.604H202.902z"/>
			<path fill="#FFFFFF" d="M208.618,58.75h3.661v2.296h0.043c0.806-1.794,2.416-2.582,4.244-2.582c3.174,0,4.447,2.392,4.447,4.974
				v7.77h-4.023v-6.023c0-2.346-0.756-3.134-1.852-3.134c-1.654,0-2.502,1.222-2.502,3.896v5.262h-4.02L208.618,58.75L208.618,58.75
				z"/>
			<path fill="#FFFFFF" d="M222.488,58.75h2.367v-2.796l3.953-1.317v4.113h2.813v3.014h-2.813v4.588
				c0,1.508,0.336,2.273,1.604,2.273c0.404,0,0.831-0.098,1.23-0.169l0.137,2.797c-0.76,0.097-1.521,0.239-2.526,0.239
				c-3.593,0-4.465-1.695-4.465-4.661v-5.067h-2.302V58.75H222.488z"/>
		</g>
		<rect x="54.452" y="4.12" display="inline" fill="none" width="232.166" height="15.108"/>
		
			<text transform="matrix(1 0 0 1 54.4517 17.231)" display="inline" fill="#FFFFFF" font-family="'AlphaLigue'" font-size="17.8626">NORManDie</text>
	</g>
</g>
</svg>
